<?xml version="1.0" encoding="UTF-8"?>
<svg version="1.1" xmlns="http://www.w3.org/2000/svg" width="200" height="200">
<path d="M0 0 C66 0 132 0 200 0 C200 66 200 132 200 200 C134 200 68 200 0 200 C0 134 0 68 0 0 Z " fill="#FEFEFE" transform="translate(0,0)"/>
<path d="M0 0 C2.31 0 4.62 0 7 0 C7 11.22 7 22.44 7 34 C5.68 33.34 4.36 32.68 3 32 C-0.18490007 31.7226499 -0.18490007 31.7226499 -3 34 C-10.09170306 34.67540029 -10.09170306 34.67540029 -13.4375 32.1875 C-16.33039061 28.13745315 -16.67667998 23.83734746 -16 19 C-13.98497111 15.24787724 -12.54533858 13.36355905 -9 11 C-5.97670744 10.7389212 -3.04123758 10.91184819 0 11 C0 7.37 0 3.74 0 0 Z " fill="#5765B8" transform="translate(138,82)"/>
<path d="M0 0 C3.0173817 1.31190509 4.51255819 2.25723153 6.3125 5 C7 7 7 7 7 10 C2.05 10 -2.9 10 -8 10 C-7.855625 11.258125 -7.71125 12.51625 -7.5625 13.8125 C-7.44068359 14.87404297 -7.44068359 14.87404297 -7.31640625 15.95703125 C-7.02829265 18.19396393 -7.02829265 18.19396393 -6 21 C-0.97745369 21.2954439 1.89542386 20.98514628 6 18 C4.25 21.875 4.25 21.875 2 23 C-7.63407974 23.93282359 -7.63407974 23.93282359 -11.5625 21.25 C-12.036875 20.5075 -12.51125 19.765 -13 19 C-13.4125 18.401875 -13.825 17.80375 -14.25 17.1875 C-15.36560598 13.93364921 -15.35375713 11.41965225 -15 8 C-11.29636601 1.2312896 -7.69310897 -0.97666422 0 0 Z " fill="#3B4BAB" transform="translate(86,93)"/>
<path d="M0 0 C1.32 0 2.64 0 4 0 C5.63076793 4.01851766 7.25357494 8.04020451 8.875 12.0625 C9.56529297 13.7630957 9.56529297 13.7630957 10.26953125 15.49804688 C12.46223314 20.94802332 14.56066189 26.30055195 16 32 C13.69 32 11.38 32 9 32 C7.89521463 29.16690656 6.7911567 26.3335331 5.6875 23.5 C5.37876953 22.70851563 5.07003906 21.91703125 4.75195312 21.1015625 C3.83086448 18.73581904 2.91514672 16.36804732 2 14 C1.70593262 13.24904053 1.41186523 12.49808105 1.10888672 11.72436523 C-1.4851487 5.00247677 -1.4851487 5.00247677 -1 1 C-0.67 0.67 -0.34 0.34 0 0 Z " fill="#404FAE" transform="translate(18,84)"/>
<path d="M0 0 C1.98 0 3.96 0 6 0 C6 10.56 6 21.12 6 32 C4.02 32 2.04 32 0 32 C0 21.44 0 10.88 0 0 Z " fill="#3848AA" transform="translate(151,84)"/>
<path d="M0 0 C0 1.65 0 3.3 0 5 C2.31 5 4.62 5 7 5 C7 5.33 7 5.66 7 6 C4.69 6 2.38 6 0 6 C0.33 12.27 0.66 18.54 1 25 C2.98 25 4.96 25 7 25 C6.34 25.99 5.68 26.98 5 28 C2.90625 28.3984375 2.90625 28.3984375 0.5 28.375 C-0.2940625 28.38273437 -1.088125 28.39046875 -1.90625 28.3984375 C-2.5971875 28.26695313 -3.288125 28.13546875 -4 28 C-6.82987779 23.75518332 -6.36789905 20.1169703 -6.375 15.125 C-6.39949219 14.22652344 -6.42398438 13.32804687 -6.44921875 12.40234375 C-6.4684184 8.06962383 -6.3895234 5.64279376 -4.1015625 1.8671875 C-2 0 -2 0 0 0 Z " fill="#4352AF" transform="translate(62,88)"/>
<path d="M0 0 C1.65 0 3.3 0 5 0 C5 10.56 5 21.12 5 32 C3.02 31.34 1.04 30.68 -1 30 C-1.19148936 9.46808511 -1.19148936 9.46808511 0 0 Z " fill="#3F4EAD" transform="translate(139,83)"/>
<path d="M0 0 C6.27 0 12.54 0 19 0 C19 0.66 19 1.32 19 2 C18.34 2 17.68 2 17 2 C16.76539063 2.65355469 16.53078125 3.30710937 16.2890625 3.98046875 C14.60244541 7.93124152 12.50573525 11.58704258 10.375 15.3125 C9.95476562 16.05306641 9.53453125 16.79363281 9.1015625 17.55664062 C8.07051505 19.37269011 7.03563954 21.18656533 6 23 C3.69 23 1.38 23 -1 23 C0.7342733 18.02642312 3.43327957 13.68501047 6.125 9.1875 C6.59292969 8.39923828 7.06085938 7.61097656 7.54296875 6.79882812 C8.6921406 4.86399798 9.84564149 2.93174016 11 1 C7.37 1 3.74 1 0 1 C0 0.67 0 0.34 0 0 Z " fill="#4A58B2" transform="translate(175,93)"/>
<path d="M0 0 C1 1 1 1 1.11352539 2.76586914 C1.10828857 3.51473389 1.10305176 4.26359863 1.09765625 5.03515625 C1.09443359 5.84404297 1.09121094 6.65292969 1.08789062 7.48632812 C1.07951172 8.33646484 1.07113281 9.18660156 1.0625 10.0625 C1.05798828 10.91650391 1.05347656 11.77050781 1.04882812 12.65039062 C1.03700373 14.76695663 1.01906769 16.88348685 1 19 C-0.98 19.33 -2.96 19.66 -5 20 C-8.18403855 16.57168336 -8.40644407 14.0440565 -8.375 9.4375 C-8.38273438 8.30183594 -8.39046875 7.16617188 -8.3984375 5.99609375 C-8 3 -8 3 -6.640625 1.11328125 C-4.35715512 -0.43621617 -2.69553809 -0.28374085 0 0 Z " fill="#FBFBFD" transform="translate(137,94)"/>
<path d="M0 0 C0.33 8.25 0.66 16.5 1 25 C2.65 25.33 4.3 25.66 6 26 C5.67 26.66 5.34 27.32 5 28 C3.54257537 28.08096803 2.08387193 28.13917774 0.625 28.1875 C-0.18710937 28.22230469 -0.99921875 28.25710937 -1.8359375 28.29296875 C-2.55007812 28.19628906 -3.26421875 28.09960938 -4 28 C-6.82987779 23.75518332 -6.36789905 20.1169703 -6.375 15.125 C-6.39949219 14.22652344 -6.42398438 13.32804687 -6.44921875 12.40234375 C-6.4684184 8.06962383 -6.3895234 5.64279376 -4.1015625 1.8671875 C-2 0 -2 0 0 0 Z " fill="#3D4CAC" transform="translate(44,88)"/>
<path d="M0 0 C2.14642449 3.21963674 3.35881354 6.44429859 4.625 10.0625 C4.85445312 10.69994141 5.08390625 11.33738281 5.3203125 11.99414062 C7 16.738258 7 16.738258 7 19 C2.71 19 -1.58 19 -6 19 C-6.33 20.65 -6.66 22.3 -7 24 C-7.63437344 25.6792238 -8.29289322 27.35008418 -9 29 C-10.29651382 25.11045853 -9.40133749 23.79350846 -7.91015625 20.01953125 C-7.45576172 18.85615234 -7.00136719 17.69277344 -6.53320312 16.49414062 C-6.04787109 15.27919922 -5.56253906 14.06425781 -5.0625 12.8125 C-4.34030273 10.97268555 -4.34030273 10.97268555 -3.60351562 9.09570312 C-2.41065708 6.06040959 -1.20918758 3.0288173 0 0 Z " fill="#D7DBEE" transform="translate(16,87)"/>
<path d="M0 0 C7.5150564 -0.36959294 7.5150564 -0.36959294 9.609375 1.2265625 C11.40574805 3.51744274 11.34811061 4.78221137 11.29296875 7.66796875 C11.28330078 8.56064453 11.27363281 9.45332031 11.26367188 10.37304688 C11.23853516 11.30181641 11.21339844 12.23058594 11.1875 13.1875 C11.17396484 14.12787109 11.16042969 15.06824219 11.14648438 16.03710938 C11.11113096 18.35865038 11.06178674 20.67903653 11 23 C9.02 23 7.04 23 5 23 C4.67 16.73 4.34 10.46 4 4 C1.525 3.01 1.525 3.01 -1 2 C-0.67 1.34 -0.34 0.68 0 0 Z " fill="#3E4DAD" transform="translate(107,93)"/>
<path d="M0 0 C8.81299886 -0.44811859 8.81299886 -0.44811859 13 3 C14.73523928 5.64417414 15 6.78465943 15 10 C10.05 10 5.1 10 0 10 C-0.33 11.32 -0.66 12.64 -1 14 C-1.18108819 9.38225105 -0.81101416 6.22569972 1 2 C0.67 1.34 0.34 0.68 0 0 Z " fill="#747FC4" transform="translate(78,93)"/>
<path d="M0 0 C2 1 4 2 6 3 C6 9.27 6 15.54 6 22 C4.02 22 2.04 22 0 22 C0 14.74 0 7.48 0 0 Z " fill="#3C4CAC" transform="translate(97,94)"/>
<path d="M0 0 C2.5 0.125 2.5 0.125 3.5 1.125 C3.54092937 3.45797433 3.54241723 5.79205225 3.5 8.125 C0.86 8.125 -1.78 8.125 -4.5 8.125 C-3.48810613 0.17440531 -3.48810613 0.17440531 0 0 Z " fill="#F5F6FB" transform="translate(82.5,93.875)"/>
<path d="M0 0 C0.99 0.33 1.98 0.66 3 1 C3.33 2.98 3.66 4.96 4 7 C2.35 7 0.7 7 -1 7 C-1.04254356 5.00045254 -1.04080783 2.99958364 -1 1 C-0.67 0.67 -0.34 0.34 0 0 Z " fill="#3A4AAB" transform="translate(88,95)"/>
<path d="M0 0 C0 0.99 0 1.98 0 3 C-3.42094242 5.28062828 -4.68187222 5.21925007 -8.6875 5.125 C-10.17830078 5.09792969 -10.17830078 5.09792969 -11.69921875 5.0703125 C-12.45847656 5.04710938 -13.21773438 5.02390625 -14 5 C-14 4.34 -14 3.68 -14 3 C-11 2 -11 2 -7.5625 2.625 C-4.04521842 3.35265548 -4.04521842 3.35265548 -1.5625 1.5625 C-1.046875 1.046875 -0.53125 0.53125 0 0 Z " fill="#6672BE" transform="translate(91,111)"/>
<path d="M0 0 C0.99 0.33 1.98 0.66 3 1 C2.0409375 2.051875 2.0409375 2.051875 1.0625 3.125 C-1.16386102 6.22841233 -1.65080943 8.24620139 -2 12 C-2.33 12 -2.66 12 -3 12 C-3.2954439 6.97745369 -2.98514628 4.10457614 0 0 Z " fill="#6874BF" transform="translate(74,96)"/>
</svg>
